<?xml version="1.0" standalone="no"?>
<!DOCTYPE svg PUBLIC "-//W3C//DTD SVG 20010904//EN"
 "http://www.w3.org/TR/2001/REC-SVG-20010904/DTD/svg10.dtd">
<svg version="1.0" xmlns="http://www.w3.org/2000/svg"
 width="300.000000pt" height="71.000000pt" viewBox="0 0 300.000000 71.000000"
 preserveAspectRatio="xMidYMid meet">
<metadata>
Created by potrace 1.10, written by Peter Selinger 2001-2011
</metadata>
<g transform="translate(0.000000,71.000000) scale(0.100000,-0.100000)"
fill="#000000" stroke="none">
<path d="M1862 470 c2 -34 -1 -50 -9 -50 -6 0 -15 5 -18 10 -10 16 -48 11 -73
-8 -27 -21 -43 -79 -35 -128 8 -46 57 -88 92 -79 14 3 41 6 59 5 l32 -1 0 151
0 150 -26 0 c-25 0 -26 -2 -22 -50z m-4 -124 c5 -64 -4 -86 -37 -86 -42 0 -62
50 -41 105 8 22 15 26 42 23 30 -3 33 -6 36 -42z"/>
<path d="M1960 370 l0 -150 25 0 25 0 0 150 0 150 -25 0 -25 0 0 -150z"/>
<path d="M140 365 l0 -145 30 0 30 0 0 145 0 145 -30 0 -30 0 0 -145z"/>
<path d="M1020 364 l0 -146 76 4 c70 3 78 6 104 34 32 37 45 99 30 153 -18 66
-73 101 -161 101 l-49 0 0 -146z m138 69 c32 -35 31 -115 -3 -148 -15 -16 -36
-25 -55 -25 l-30 0 0 98 c0 54 3 102 6 105 13 12 59 -5 82 -30z"/>
<path d="M2280 365 l0 -145 79 0 c89 0 115 14 126 66 4 22 0 37 -16 58 -20 25
-20 28 -5 45 9 10 16 28 16 42 -1 53 -50 79 -147 79 l-53 0 0 -145z m140 79
c24 -23 0 -48 -49 -52 l-41 -3 0 40 0 40 38 -6 c20 -3 44 -12 52 -19z m8 -132
c5 -34 -15 -52 -59 -52 -39 0 -39 0 -39 41 l0 40 48 -3 c40 -3 47 -6 50 -26z"/>
<path d="M2770 460 c0 -23 -4 -30 -20 -30 -14 0 -20 -7 -20 -21 0 -16 4 -19
20 -14 19 6 20 2 20 -72 0 -43 4 -84 9 -91 4 -8 24 -14 42 -15 28 -2 35 2 37
21 3 17 -2 22 -17 22 -19 0 -21 6 -21 71 0 66 1 70 20 64 16 -5 20 -2 20 14 0
14 -6 21 -20 21 -16 0 -20 7 -20 30 0 25 -4 30 -25 30 -21 0 -25 -5 -25 -30z"/>
<path d="M403 433 c-13 -2 -32 -16 -44 -31 l-21 -27 26 -3 c14 -2 33 4 42 12
19 19 36 20 52 4 23 -23 12 -35 -35 -41 -52 -6 -83 -33 -83 -72 0 -28 32 -57
62 -56 13 0 47 1 77 1 44 0 52 3 47 16 -3 8 -6 46 -6 84 0 50 -5 73 -17 89
-19 22 -62 32 -100 24z m67 -131 c0 -25 -19 -42 -47 -42 -31 0 -42 29 -18 46
28 20 65 18 65 -4z"/>
<path d="M569 432 c0 -4 -1 -53 -2 -109 l-2 -103 27 0 c27 0 27 0 30 83 l3 82
30 0 30 0 3 -82 c3 -83 3 -83 30 -83 l27 0 -3 70 c-4 80 7 103 47 98 25 -3 26
-5 29 -85 3 -81 3 -83 27 -83 25 0 25 1 25 89 0 85 -1 91 -26 110 -31 25 -67
27 -84 6 -14 -17 -40 -20 -40 -6 0 15 -57 23 -79 12 -13 -7 -28 -8 -45 -1 -14
5 -26 6 -27 2z"/>
<path d="M1321 427 c-73 -42 -66 -179 10 -206 35 -12 76 -6 101 17 42 36 42
138 -1 176 -25 23 -81 29 -110 13z m89 -73 c15 -43 -4 -87 -40 -92 -30 -5 -50
21 -50 65 0 71 69 92 90 27z"/>
<path d="M1554 430 c-36 -14 -54 -50 -54 -105 0 -60 18 -89 64 -105 27 -9 42
-8 69 4 43 18 59 44 59 102 0 86 -64 134 -138 104z m76 -55 c6 -8 12 -30 12
-50 0 -42 -16 -65 -46 -65 -33 0 -46 19 -46 65 0 23 5 46 12 53 17 17 53 15
68 -3z"/>
<path d="M2115 431 c-41 -17 -60 -50 -60 -107 0 -45 4 -58 26 -80 33 -33 92
-37 133 -10 26 16 27 19 12 34 -12 13 -18 14 -28 4 -18 -18 -63 -15 -81 6 -10
10 -17 22 -17 25 0 4 32 7 70 7 l70 0 0 36 c0 65 -65 109 -125 85z m59 -47
c28 -27 19 -39 -26 -38 -45 2 -53 17 -21 42 22 16 28 15 47 -4z"/>
<path d="M2568 423 c-32 -20 -48 -53 -48 -98 0 -50 18 -82 57 -100 42 -20 82
-13 114 21 35 38 34 123 -2 159 -33 33 -85 41 -121 18z m92 -52 c26 -50 4
-111 -40 -111 -33 0 -50 23 -50 65 0 42 17 65 50 65 19 0 33 -7 40 -19z"/>
</g>
</svg>
